<svg width="151" height="112" viewBox="0 0 151 112" fill="none" xmlns="http://www.w3.org/2000/svg">
<path d="M9.82021 0C30.1734 0 47.9717 10.9284 57.6746 27.2357C77.8192 8.97927 108.833 7.78868 130.418 25.6054C154.12 45.1696 157.475 80.2414 137.911 103.943C135.778 106.527 133.46 108.869 130.994 110.966C143.999 87.9241 139.034 58.1823 117.916 40.7513C101.269 27.0107 79.0119 24.5725 60.4589 32.5518C63.673 39.5874 65.4681 47.4075 65.4681 55.6479C65.4681 86.3813 40.5537 111.296 9.82021 111.296C6.46923 111.296 3.18787 110.997 0 110.429C26.0496 105.791 45.8277 83.0303 45.8277 55.6479C45.8277 28.2652 26.0499 5.50125 0 0.863104C3.1877 0.295539 6.46942 0 9.82021 0Z" fill="#F7F9F8"/>
</svg>
