<svg width="235" height="232" viewBox="0 0 235 232" fill="none" xmlns="http://www.w3.org/2000/svg">
<g opacity="0.2">
<path d="M253.167 181.474H241.375V73.3446C241.392 67.5189 239.103 61.9231 235.008 57.7797C232.978 55.7553 230.569 54.151 227.918 53.0584C225.268 51.9658 222.428 51.4064 219.561 51.4122H63.0854C60.2147 51.421 57.3724 51.9814 54.7133 53.063C49.4779 55.4263 45.285 59.6192 42.9216 64.8547C41.8401 67.5138 41.2796 70.3561 41.2708 73.2267V181.71H29.4791C27.1336 181.71 24.8842 182.642 23.2257 184.3C21.5671 185.959 20.6354 188.208 20.6354 190.554V206.59C20.6441 210.064 21.4202 213.494 22.9083 216.633C24.3964 219.772 26.5596 222.544 29.2433 224.75C34.5129 229.211 41.2059 231.637 48.11 231.589H234.89C241.826 231.613 248.548 229.192 253.875 224.75C256.537 222.532 258.678 219.756 260.145 216.617C261.612 213.478 262.37 210.055 262.365 206.59V190.554C262.398 189.342 262.182 188.137 261.73 187.013C261.278 185.888 260.6 184.868 259.737 184.017C258.875 183.166 257.846 182.501 256.716 182.063C255.586 181.626 254.378 181.425 253.167 181.474ZM243.144 206.355C243.154 208.836 242.323 211.246 240.786 213.194C239.919 214.312 238.812 215.222 237.547 215.854C236.281 216.487 234.89 216.827 233.475 216.849H48.8175C47.4027 216.827 46.0111 216.487 44.7456 215.854C43.48 215.222 42.3731 214.312 41.5066 213.194C39.9695 211.246 39.1382 208.836 39.1483 206.355V195.978H243.144V206.355Z" fill="#F7F9F8"/>
</g>
</svg>
