<svg width="40" height="30" viewBox="0 0 40 30" fill="none" xmlns="http://www.w3.org/2000/svg">
<path d="M2.60753 0C8.01184 0 12.7378 2.90178 15.3142 7.23183C20.6631 2.38424 28.8981 2.06811 34.6296 6.79893C40.9231 11.9937 41.8139 21.3062 36.6192 27.5998C36.0528 28.2859 35.4374 28.9078 34.7824 29.4646C38.2356 23.3462 36.9172 15.449 31.3099 10.8206C26.8897 7.17208 20.9798 6.52466 16.0535 8.64339C16.9069 10.5115 17.3835 12.588 17.3835 14.776C17.3835 22.9366 10.7681 29.552 2.60753 29.552C1.71776 29.552 0.846466 29.4727 0 29.322C6.91688 28.0904 12.1685 22.0468 12.1685 14.776C12.1685 7.50517 6.91695 1.46073 0 0.229178C0.84642 0.0784737 1.71781 0 2.60753 0Z" fill="#F7F9F8"/>
</svg>
