<svg width="209" height="213" viewBox="0 0 209 213" fill="none" xmlns="http://www.w3.org/2000/svg">
<g opacity="0.2">
<path d="M216.206 184.179C215.752 187.186 214.608 190.047 212.862 192.537C211.125 194.984 208.824 196.976 206.154 198.346C203.484 199.715 200.523 200.421 197.522 200.404H181.287C180.133 200.401 178.995 200.122 177.969 199.592C176.943 199.062 176.058 198.296 175.387 197.356C174.709 196.417 174.258 195.332 174.07 194.189C173.882 193.046 173.963 191.874 174.306 190.767C177.944 179.164 177.157 166.086 144.206 145.141C142.863 144.261 141.835 142.977 141.269 141.475C140.703 139.972 140.63 138.329 141.059 136.782C141.52 135.259 142.455 133.922 143.729 132.967C145.002 132.012 146.547 131.488 148.139 131.472C162.204 131.664 175.929 135.815 187.742 143.45C199.555 151.086 208.977 161.896 214.927 174.641C216.137 177.665 216.576 180.943 216.206 184.179ZM191.612 75.7174C191.586 87.2383 186.998 98.2798 178.85 106.425C170.703 114.571 159.66 119.157 148.139 119.181C146.848 119.157 145.586 118.8 144.474 118.144C143.363 117.487 142.44 116.554 141.797 115.435C141.153 114.316 140.81 113.049 140.802 111.758C140.793 110.468 141.119 109.197 141.748 108.069C147.765 98.4416 150.956 87.3167 150.956 75.9632C150.956 64.6098 147.765 53.4848 141.748 43.8574C140.976 42.7552 140.521 41.463 140.431 40.1207C140.342 38.7785 140.621 37.4372 141.239 36.2422C141.856 35.0471 142.789 34.0438 143.936 33.3409C145.083 32.6379 146.401 32.2621 147.746 32.254C153.503 32.2394 159.202 33.4005 164.495 35.6663C169.787 37.9321 174.561 41.2548 178.524 45.4307C186.613 53.5984 191.172 64.6155 191.219 76.1107L191.612 75.7174Z" fill="#F7F9F8"/>
<path d="M163.971 183.884C164.369 188.698 163.421 193.528 161.233 197.834C159.045 202.14 155.703 205.754 151.581 208.271C147.471 210.798 142.731 212.125 137.913 212.106H45.7447C40.92 212.127 36.1855 210.799 32.0764 208.271C27.9445 205.769 24.5992 202.156 22.4223 197.844C20.2454 193.531 19.3246 188.694 19.765 183.884C20.1218 179.085 21.826 174.483 24.6817 170.609C32.5219 160.178 42.6198 151.654 54.2198 145.677C65.8197 139.7 78.6212 136.424 91.6664 136.094C104.756 136.354 117.616 139.588 129.272 145.55C140.928 151.513 151.075 160.048 158.946 170.511C161.808 174.427 163.552 179.052 163.971 183.884ZM140.076 71.9808C140.05 84.7643 134.966 97.018 125.934 106.065C116.902 115.111 104.656 120.216 91.8729 120.262C84.7553 120.245 77.7298 118.652 71.301 115.597C64.8721 112.542 59.1993 108.102 54.6898 102.596C50.1804 97.0887 46.9462 90.6517 45.2193 83.7467C43.4925 76.8417 43.316 69.6401 44.7024 62.6588C46.0946 55.6757 49.0172 49.0881 53.2599 43.3697C57.5027 37.6513 62.9601 32.9443 69.2396 29.5873C75.5191 26.2304 82.4645 24.3069 89.5763 23.9553C96.688 23.6036 103.789 24.8326 110.369 27.5538C119.169 31.187 126.696 37.3458 131.998 45.2528C137.301 53.1597 140.143 62.4603 140.164 71.9808H140.076Z" fill="#F7F9F8"/>
</g>
</svg>
