<svg width="24" height="24" viewBox="0 0 24 24" fill="none" xmlns="http://www.w3.org/2000/svg">
<path d="M19.696 8.72C19.6625 8.95861 19.558 9.18162 19.396 9.36L13.306 16.12C13.1456 16.3108 12.9484 16.4673 12.726 16.58C12.5055 16.6871 12.2644 16.7452 12.0193 16.7504C11.7742 16.7556 11.5309 16.7077 11.306 16.61C11.0715 16.5164 10.86 16.3731 10.686 16.19L4.58601 9.36C4.4252 9.17962 4.31785 8.958 4.27601 8.72C4.24299 8.47868 4.2779 8.23294 4.37682 8.01036C4.47575 7.78779 4.63476 7.5972 4.83601 7.46C5.04002 7.33088 5.27472 7.2584 5.51601 7.25H18.516C18.76 7.25496 18.9975 7.329 19.201 7.46352C19.4046 7.59804 19.5658 7.78753 19.666 8.01C19.747 8.238 19.758 8.486 19.696 8.72Z" fill="#F7F9F8"/>
</svg>
