<svg width="24" height="24" viewBox="0 0 24 24" fill="none" xmlns="http://www.w3.org/2000/svg">
<path d="M20.7249 5.27391H16.0349V4.38391C16.0312 3.75373 15.7798 3.15029 15.3349 2.70391C15.1133 2.48153 14.8499 2.3052 14.5599 2.18506C14.2698 2.06493 13.9589 2.00336 13.6449 2.00391H10.3849C10.071 2.00336 9.76005 2.06493 9.47 2.18506C9.17996 2.3052 8.91655 2.48153 8.69494 2.70391C8.25375 3.1519 8.00599 3.75515 8.00494 4.38391V5.27391H3.31494C3.11603 5.27391 2.92526 5.35293 2.78461 5.49358C2.64396 5.63423 2.56494 5.825 2.56494 6.02391C2.56494 6.22282 2.64396 6.41359 2.78461 6.55424C2.92526 6.69489 3.11603 6.77391 3.31494 6.77391H4.73494V18.5339C4.73086 18.9897 4.81714 19.4417 4.98878 19.864C5.16042 20.2862 5.41402 20.6703 5.73494 20.9939C6.38927 21.635 7.26888 21.994 8.18494 21.9939H15.8049C16.721 21.994 17.6006 21.635 18.2549 20.9939C18.5759 20.6703 18.8295 20.2862 19.0011 19.864C19.1727 19.4417 19.259 18.9897 19.2549 18.5339V6.77391H20.6849C20.8839 6.77391 21.0746 6.69489 21.2153 6.55424C21.3559 6.41359 21.4349 6.22282 21.4349 6.02391C21.4349 5.825 21.3559 5.63423 21.2153 5.49358C21.0746 5.35293 20.8839 5.27391 20.6849 5.27391H20.7249ZM9.52494 4.38391C9.52498 4.26849 9.54799 4.15422 9.59263 4.04778C9.63727 3.94134 9.70264 3.84484 9.78494 3.76391C9.95026 3.60041 10.1724 3.50723 10.4049 3.50391H13.6649C13.782 3.50318 13.898 3.5258 14.0061 3.57044C14.1143 3.61509 14.2125 3.68086 14.2949 3.76391C14.4584 3.92923 14.5516 4.15142 14.5549 4.38391V5.27391H9.55494L9.52494 4.38391ZM10.8549 16.9939C10.8549 17.2591 10.7496 17.5135 10.562 17.701C10.3745 17.8886 10.1202 17.9939 9.85494 17.9939C9.58972 17.9939 9.33537 17.8886 9.14783 17.701C8.9603 17.5135 8.85494 17.2591 8.85494 16.9939V11.5639C8.85494 11.2987 8.9603 11.0443 9.14783 10.8568C9.33537 10.6693 9.58972 10.5639 9.85494 10.5639C10.1202 10.5639 10.3745 10.6693 10.562 10.8568C10.7496 11.0443 10.8549 11.2987 10.8549 11.5639V16.9939ZM15.2149 16.9939C15.2149 17.2591 15.1096 17.5135 14.922 17.701C14.7345 17.8886 14.4802 17.9939 14.2149 17.9939C13.9497 17.9939 13.6954 17.8886 13.5078 17.701C13.3203 17.5135 13.2149 17.2591 13.2149 16.9939V11.5639C13.2149 11.2987 13.3203 11.0443 13.5078 10.8568C13.6954 10.6693 13.9497 10.5639 14.2149 10.5639C14.4802 10.5639 14.7345 10.6693 14.922 10.8568C15.1096 11.0443 15.2149 11.2987 15.2149 11.5639V16.9939Z" fill="#F7F9F8"/>
</svg>
