<svg width="24" height="24" viewBox="0 0 24 24" fill="none" xmlns="http://www.w3.org/2000/svg">
<path d="M16.698 21.996H5.09798C4.68836 21.9977 4.28258 21.9172 3.90467 21.7591C3.52677 21.6011 3.18444 21.3688 2.89798 21.076C2.60941 20.7853 2.38129 20.4404 2.22681 20.0611C2.07234 19.6817 1.99456 19.2756 1.99798 18.866V7.276C1.99287 6.86828 2.07093 6.4638 2.22739 6.08726C2.38385 5.71072 2.61543 5.37003 2.90798 5.086C3.19262 4.7974 3.5328 4.56948 3.90798 4.416C4.28806 4.25706 4.696 4.17547 5.10798 4.176H9.54798C9.74689 4.176 9.93765 4.25501 10.0783 4.39567C10.219 4.53632 10.298 4.72709 10.298 4.926C10.298 5.12491 10.219 5.31568 10.0783 5.45633C9.93765 5.59698 9.74689 5.676 9.54798 5.676H5.10798C4.89289 5.68185 4.68016 5.72237 4.47798 5.796C4.18332 5.92037 3.93207 6.12919 3.75589 6.39612C3.57972 6.66306 3.48649 6.97617 3.48798 7.296V18.886C3.48547 19.1009 3.52574 19.3141 3.60643 19.5132C3.68712 19.7124 3.80662 19.8935 3.95798 20.046C4.10931 20.1962 4.28879 20.315 4.48613 20.3956C4.68347 20.4763 4.89479 20.5172 5.10798 20.516H16.708C16.921 20.516 17.131 20.476 17.328 20.396C17.524 20.3173 17.7012 20.198 17.848 20.046C18 19.8992 18.1192 19.722 18.198 19.526C18.2864 19.3279 18.3307 19.1129 18.328 18.896V14.456C18.328 14.2571 18.407 14.0663 18.5476 13.9257C18.6883 13.785 18.8791 13.706 19.078 13.706C19.2769 13.706 19.4677 13.785 19.6083 13.9257C19.749 14.0663 19.828 14.2571 19.828 14.456V18.926C19.8297 19.3356 19.7491 19.7414 19.5911 20.1193C19.4331 20.4972 19.2008 20.8395 18.908 21.126C18.6209 21.4142 18.2815 21.6449 17.908 21.806C17.521 21.946 17.11 22.011 16.698 21.996Z" fill="#050506"/>
<path d="M21.808 5.45478C21.706 5.1973 21.549 4.96522 21.3479 4.77478L19.1979 2.62478C19.0075 2.42373 18.7754 2.26673 18.5179 2.16478C18.131 2.00175 17.7042 1.95844 17.2924 2.04044C16.8806 2.12244 16.5029 2.32598 16.2079 2.62478L14.4979 4.33478V4.38478L6.75795 12.1148C6.36719 12.5082 6.1479 13.0403 6.14795 13.5948V15.7648C6.15058 16.3236 6.37373 16.8587 6.76886 17.2539C7.16399 17.649 7.69915 17.8722 8.25795 17.8748H10.4279C10.7035 17.8751 10.9763 17.8205 11.2305 17.714C11.4846 17.6076 11.7149 17.4514 11.9079 17.2548L19.648 9.51478L21.3679 7.79478C21.5699 7.60478 21.7279 7.37278 21.8279 7.11478C21.9424 6.85832 22.0015 6.58062 22.0015 6.29978C22.0015 6.01894 21.9424 5.74125 21.8279 5.48478L21.808 5.45478ZM20.4279 6.50478C20.3955 6.58034 20.3478 6.64842 20.2879 6.70478L19.068 7.92478L16.068 4.92478L17.2979 3.69478C17.4161 3.58052 17.5736 3.51606 17.738 3.51478C17.8172 3.5161 17.8953 3.53309 17.9679 3.56478C18.0453 3.59745 18.1119 3.64412 18.1679 3.70478L20.3279 5.85478C20.3824 5.91352 20.4264 5.98117 20.4579 6.05478C20.4728 6.13073 20.4728 6.20883 20.4579 6.28478C20.4617 6.35934 20.4515 6.43395 20.4279 6.50478Z" fill="#050506"/>
</svg>
