<svg width="24" height="24" viewBox="0 0 24 24" fill="none" xmlns="http://www.w3.org/2000/svg">
<path d="M20.68 7.01449C20.4579 6.55044 20.1451 6.13561 19.76 5.79449L16.76 3.07449C16.0997 2.46924 15.2613 2.09388 14.37 2.00449H8.21C7.54756 1.9764 6.88615 2.08034 6.26425 2.31027C5.64236 2.5402 5.07241 2.89152 4.58757 3.34379C4.10273 3.79606 3.71269 4.34024 3.44014 4.94467C3.16758 5.5491 3.01797 6.2017 3 6.86449V17.1645C3.03538 18.164 3.36969 19.13 3.95975 19.9375C4.54981 20.745 5.36849 21.3571 6.31 21.6945C6.92211 21.9272 7.57609 22.0293 8.23 21.9945H15.79C16.4524 22.0226 17.1139 21.9186 17.7357 21.6887C18.3576 21.4588 18.9276 21.1075 19.4124 20.6552C19.8973 20.2029 20.2873 19.6587 20.5599 19.0543C20.8324 18.4499 20.982 17.7973 21 17.1345V8.56449C21.0048 8.03094 20.8957 7.50251 20.68 7.01449ZM15.84 15.0945L13.18 17.7645C13.0269 17.9134 12.8471 18.0322 12.65 18.1145C12.516 18.1745 12.376 18.2112 12.23 18.2245C12.0984 18.2545 11.9616 18.2545 11.83 18.2245C11.6848 18.2116 11.5428 18.1744 11.41 18.1145C11.2129 18.0322 11.0331 17.9134 10.88 17.7645L8.22 15.0945C8.05617 14.9032 7.97057 14.6571 7.98029 14.4054C7.99001 14.1538 8.09434 13.915 8.27244 13.7369C8.45053 13.5588 8.68927 13.4545 8.94095 13.4448C9.19262 13.4351 9.4387 13.5207 9.63 13.6845L11.03 15.0845V10.4745C11.03 10.2093 11.1354 9.95492 11.3229 9.76738C11.5104 9.57985 11.7648 9.47449 12.03 9.47449C12.2952 9.47449 12.5496 9.57985 12.7371 9.76738C12.9246 9.95492 13.03 10.2093 13.03 10.4745V15.0845L14.43 13.6845C14.6213 13.5207 14.8674 13.4351 15.1191 13.4448C15.3707 13.4545 15.6095 13.5588 15.7876 13.7369C15.9657 13.915 16.07 14.1538 16.0797 14.4054C16.0894 14.6571 16.0038 14.9032 15.84 15.0945ZM16.06 7.40449C15.9173 7.40581 15.7758 7.37885 15.6436 7.32517C15.5114 7.27148 15.3912 7.19214 15.2899 7.09172C15.1885 6.9913 15.1081 6.8718 15.0532 6.74011C14.9983 6.60842 14.97 6.46716 14.97 6.32449V3.67449C15.25 3.82649 15.52 3.99649 15.78 4.18449L18.78 6.91449C18.9467 7.05516 19.0867 7.21849 19.2 7.40449H16.06Z" fill="black"/>
</svg>
