<svg width="24" height="24" viewBox="0 0 24 24" fill="none" xmlns="http://www.w3.org/2000/svg">
<path d="M18.08 11.9991C18.08 12.2537 18.1811 12.4979 18.3612 12.6779C18.5412 12.8579 18.7854 12.9591 19.04 12.9591C19.2946 12.9591 19.5388 12.8579 19.7188 12.6779C19.8989 12.4979 20 12.2537 20 11.9991C20 11.7445 19.8989 11.5003 19.7188 11.3202C19.5388 11.1402 19.2946 11.0391 19.04 11.0391C18.7854 11.0391 18.5412 11.1402 18.3612 11.3202C18.1811 11.5003 18.08 11.7445 18.08 11.9991ZM11.04 11.9991C11.04 12.2537 11.1411 12.4979 11.3212 12.6779C11.5012 12.8579 11.7454 12.9591 12 12.9591C12.2546 12.9591 12.4988 12.8579 12.6788 12.6779C12.8589 12.4979 12.96 12.2537 12.96 11.9991C12.96 11.7445 12.8589 11.5003 12.6788 11.3202C12.4988 11.1402 12.2546 11.0391 12 11.0391C11.7454 11.0391 11.5012 11.1402 11.3212 11.3202C11.1411 11.5003 11.04 11.7445 11.04 11.9991ZM4 11.9991C4 12.2537 4.10114 12.4979 4.28118 12.6779C4.46121 12.8579 4.70539 12.9591 4.96 12.9591C5.21461 12.9591 5.45879 12.8579 5.63882 12.6779C5.81886 12.4979 5.92 12.2537 5.92 11.9991C5.92 11.7445 5.81886 11.5003 5.63882 11.3202C5.45879 11.1402 5.21461 11.0391 4.96 11.0391C4.70539 11.0391 4.46121 11.1402 4.28118 11.3202C4.10114 11.5003 4 11.7445 4 11.9991Z" stroke="#F7F9F8" stroke-width="1.5" stroke-linecap="round" stroke-linejoin="round"/>
</svg>
